<svg width="145" height="51" viewBox="0 0 145 51" xmlns="http://www.w3.org/2000/svg"><defs><linearGradient x1="50%" y1="0%" x2="50%" y2="100%" id="a"><stop stop-color="#EDC30A" offset="0%"/><stop stop-color="#AF7800" offset="100%"/></linearGradient><linearGradient x1="7.21%" y1="42.88%" x2="93.8%" y2="42.88%" id="b"><stop stop-color="#EE385A" offset="0%"/><stop stop-color="#CF0F24" offset="100%"/></linearGradient><linearGradient x1="50%" y1="0%" x2="50%" y2="100%" id="c"><stop offset="0%"/><stop stop-color="#575757" offset="100%"/></linearGradient></defs><g transform="translate(.147 .324)" fill="none" fill-rule="evenodd"><rect stroke="#767676" stroke-width="1.5" x=".75" y=".75" width="142.5" height="48.5" rx="2"/><g fill="#767676" font-family="MuktaVaani-Medium, Mukta Vaani" font-size="18" font-weight="400"><text letter-spacing=".63" transform="translate(61.5 3.5)"><tspan x=".87" y="20.72">Staatlich</tspan></text><text letter-spacing=".1" transform="translate(61.5 3.5)"><tspan x="1.66" y="37.72">lizenziert</tspan></text></g><path fill="url(#a)" d="M2.219 31.803h42.158v2.22H2.219zM0 34.762h47.335v2.958H0z" transform="translate(9.475 6)"/><path d="M.48 0h4.926l.48 19.893H0zm9.731 0h4.926l.48 19.893H9.731zm9.731 0h4.925l.48 19.893h-5.886zm9.731 0h4.925l.48 19.893h-5.886z" transform="translate(15.392 17.094)" fill="url(#b)"/><path fill="url(#c)" d="M0 8.231L23.785 0l23.55 8.231v2.124H0z" transform="translate(9.475 6)"/></g></svg>